<svg id="Titre" version="1.1" xmlns="http://www.w3.org/2000/svg" xmlns:xlink="http://www.w3.org/1999/xlink" x="0px" y="0px" width="64px" height="64px" viewBox="0 0 100 100" enable-background="new 0 0 100 100" xml:space="preserve">
	     <title>ICON_TOOLBAR_#TEMPLATE#</title>
<g>
	<path d="M82.793,13.49h-6.992v1.441c0.001,0.847-0.411,1.608-1.035,2.133c-0.609,0.526-1.449,0.839-2.363,0.84   c-0.914-0.001-1.755-0.314-2.38-0.84c-0.623-0.524-1.037-1.287-1.036-2.133V13.49h-4.413v1.441c0,0.847-0.414,1.608-1.021,2.133   c-0.624,0.526-1.464,0.839-2.379,0.84c-0.914-0.001-1.754-0.314-2.38-0.84c-0.624-0.524-1.038-1.287-1.038-2.133V13.49h-4.397   v1.441c0.002,0.847-0.41,1.608-1.035,2.133c-0.624,0.526-1.464,0.839-2.38,0.84c-0.914-0.001-1.753-0.314-2.379-0.84   c-0.625-0.524-1.037-1.287-1.036-2.133V13.49H42.13v1.441c0,0.847-0.414,1.608-1.037,2.133c-0.625,0.526-1.465,0.839-2.379,0.84   c-0.915-0.001-1.755-0.314-2.379-0.84c-0.611-0.524-1.024-1.287-1.024-2.133V13.49H30.9v1.441c0,0.847-0.413,1.608-1.036,2.133   c-0.625,0.526-1.465,0.839-2.381,0.84c-0.914-0.001-1.753-0.314-2.364-0.84c-0.622-0.524-1.035-1.287-1.035-2.133V13.49h-6.991   c-1.716,0-3.116,1.401-3.116,3.125v75.133c0,1.732,1.4,3.133,3.116,3.133h65.698c1.717,0,3.116-1.4,3.116-3.133V16.615   C85.908,14.891,84.509,13.49,82.793,13.49z M76.079,84.8H23.806c-1.335,0-2.428-1.275-2.428-2.863c0-1.57,1.093-2.847,2.428-2.847   h52.273c1.336,0,2.429,1.276,2.429,2.847C78.508,83.522,77.415,84.8,76.079,84.8z M76.079,68.065H23.806   c-1.335,0-2.428-1.276-2.428-2.862c0-1.576,1.093-2.855,2.428-2.855h52.273c1.336,0,2.429,1.279,2.429,2.855   C78.508,66.789,77.415,68.065,76.079,68.065z M76.079,51.565H23.806c-1.335,0-2.428-1.276-2.428-2.854   c0-1.579,1.093-2.863,2.428-2.863h52.273c1.336,0,2.429,1.284,2.429,2.863C78.508,50.289,77.415,51.565,76.079,51.565z    M76.079,34.823H23.806c-1.335,0-2.428-1.276-2.428-2.854c0-1.58,1.093-2.855,2.428-2.855h52.273c1.336,0,2.429,1.276,2.429,2.855   C78.508,33.547,77.415,34.823,76.079,34.823z"/>
	<path d="M25.19,14.931c0,0.488,0.225,0.939,0.641,1.291c0.413,0.35,0.997,0.575,1.653,0.574c0.673,0,1.255-0.225,1.669-0.574   c0.415-0.351,0.639-0.803,0.639-1.291V6.747c0-0.488-0.224-0.94-0.639-1.291c-0.415-0.35-0.998-0.575-1.669-0.575   c-0.656,0-1.24,0.225-1.653,0.575c-0.415,0.352-0.641,0.803-0.641,1.291V14.931z"/>
	<path d="M36.404,14.931c0,0.488,0.242,0.939,0.641,1.291c0.413,0.35,1.013,0.575,1.669,0.574c0.671,0,1.255-0.225,1.67-0.574   c0.413-0.351,0.638-0.803,0.638-1.291V6.747c0-0.488-0.225-0.94-0.638-1.291c-0.415-0.35-1-0.575-1.67-0.575   c-0.656,0-1.257,0.225-1.669,0.575c-0.398,0.352-0.64,0.803-0.641,1.291V14.931z"/>
	<path d="M47.633,14.931c0,0.488,0.225,0.939,0.641,1.291c0.414,0.35,1.013,0.575,1.668,0.574c0.656,0,1.256-0.225,1.669-0.574   c0.416-0.351,0.641-0.803,0.641-1.291V6.747c0-0.488-0.225-0.94-0.641-1.291c-0.413-0.35-1.013-0.575-1.669-0.575   c-0.655,0-1.254,0.225-1.668,0.575c-0.416,0.352-0.641,0.803-0.641,1.291V14.931z"/>
	<path d="M58.863,14.931c0,0.488,0.226,0.939,0.64,1.291c0.414,0.35,0.999,0.575,1.67,0.574c0.655,0,1.255-0.225,1.668-0.574   c0.398-0.351,0.64-0.803,0.641-1.291V6.747c-0.001-0.488-0.242-0.94-0.641-1.291c-0.413-0.35-1.013-0.575-1.668-0.575   c-0.672,0-1.256,0.225-1.67,0.575c-0.414,0.352-0.64,0.803-0.64,1.291V14.931z"/>
	<path d="M70.094,14.931c0,0.488,0.224,0.939,0.64,1.291c0.413,0.35,0.997,0.575,1.669,0.574c0.656,0,1.239-0.225,1.653-0.574   c0.415-0.351,0.641-0.803,0.641-1.291V6.747c0-0.488-0.225-0.94-0.641-1.291c-0.414-0.35-0.997-0.575-1.653-0.575   c-0.673,0-1.256,0.225-1.669,0.575c-0.416,0.352-0.64,0.803-0.64,1.291V14.931z"/>
</g>
</svg>
